<svg width="700.13" height="832.14" xmlns="http://www.w3.org/2000/svg">
 <g>
  <title>background</title>
  <rect x="-1" y="-1" width="702.13" height="834.14" id="canvas_background" fill="none"/>
 </g>

 <g>
  <title>Layer 1</title>
  <g fill="none" stroke="#fed385" stroke-linecap="round" stroke-miterlimit="10" stroke-width="5" id="svg_2">
   <path d="m299.5,600.78l14.5,-258.5" id="svg_3"/>
   <path d="m299.5,600.78l175,-232" id="svg_4"/>
   <path d="m299.5,600.78l186,-405" id="svg_5"/>
  </g>
  <ellipse cx="525.5" cy="129.28" fill="#fd8369" rx="101" ry="78.71" transform="matrix(.34185613 -.9397523 .9397523 .34185613 224.35 578.91)" id="svg_6"/>
  <ellipse cx="325.5" cy="264.28" fill="#d37c59" rx="101" ry="78.71" transform="matrix(.06958236 -.99757621 .99757621 .06958236 39.21 570.59)" id="svg_7"/>
  <ellipse cx="525.5" cy="273.28" fill="#74d5de" rx="112" ry="94.5" transform="matrix(.43758663 -.89917626 .89917626 .43758663 49.8 626.18)" id="svg_8"/>
  <ellipse cx="378.39" cy="96.02" fill="#74d5de" rx="96.36" ry="79.8" transform="matrix(.15039814 -.98862551 .98862551 .15039814 226.52 455.66)" id="svg_9"/>
  <ellipse cx="415.24" cy="226.6" fill="#fed385" rx="93.44" ry="69.34" transform="matrix(.29036818 -.956915 .956915 .29036818 77.82 558.15)" id="svg_10"/>
  <path d="m318.32,362l9,21.14a3.85,3.85 0 0 1 -4,5.32l-22.79,-2.81a3.84,3.84 0 0 1 -2.6,-6.13l13.83,-18.33a3.84,3.84 0 0 1 6.56,0.81z" fill="#d37c59" id="svg_11"/>
  <path d="m299.5,600.78l-33,-371" fill="none" stroke="#fed385" stroke-linecap="round" stroke-miterlimit="10" stroke-width="5" id="svg_12"/>
  <path d="m299.5,600.78l88,-294" fill="none" stroke="#fed385" stroke-linecap="round" stroke-miterlimit="10" stroke-width="5" id="svg_13"/>
  <path d="m390.76,307.05l5.24,22.37a3.84,3.84 0 0 1 -4.86,4.54l-22,-6.67a3.84,3.84 0 0 1 -1.51,-6.48l16.76,-15.69a3.84,3.84 0 0 1 6.37,1.93z" fill="#fed385" id="svg_14"/>
  <path d="m480.41,364.89l-1.6,22.9a3.84,3.84 0 0 1 -6,2.92l-19,-12.84a3.84,3.84 0 0 1 0.47,-6.64l20.63,-10.06a3.84,3.84 0 0 1 5.5,3.72z" fill="#74d5de" id="svg_15"/>
  <ellipse cx="258.5" cy="129.28" fill="#fd8369" rx="94.5" ry="112" transform="matrix(.99677888 -.08019892 .08019892 .99677888 -9.54 21.16)" id="svg_16"/>
  <path d="m269.26,232.21l13,18.9a3.85,3.85 0 0 1 -2.85,6l-22.85,1.89a3.85,3.85 0 0 1 -3.78,-5.48l9.85,-20.74a3.84,3.84 0 0 1 6.63,-0.57z" fill="#fd8369" id="svg_17"/>
  <path d="m426.22606,828.49963l-218.98754,-43.5196l38.98383,-196.16387l218.98754,43.5196l-38.98383,196.16387z" fill="#de8e68" id="svg_18"/>
  <path d="m255.06,656.83l218.98,43.52l-8.79,-68.02l-218.99,-43.52l8.8,68.02z" fill="#d37c59" id="svg_19"/>
  <path d="m207.25853,784.96487l-125.37814,-24.91651l38.98383,-196.16387l125.37814,24.91651l-38.98383,196.16387z" fill="#d37c59" id="svg_20"/>
  <path d="m212.74,648.41l-125.14,-24.87l33.53,-59.61l125.13,24.88l-33.52,59.6z" fill="#de8e68" id="svg_21"/>
  <path d="m342.14716,811.78797l-50.82606,-10.10071l11.50023,-57.86834l50.82606,10.10071l-11.50023,57.86834z" fill="#d37c59" id="svg_22"/>
  <path d="m312.97908,724.2749l-76.54314,-15.21149l8.39517,-42.24389l76.54314,15.21149l-8.39517,42.24389z" fill="#fed385" id="svg_23"/>
  <path d="m307.27426,716.72179l-17.30165,-3.43837l6.09902,-30.68984l17.30165,3.43837l-6.09902,30.68984z" fill="#fd8369" id="svg_24"/>
  <path d="m291.21071,687.87707l-43.23452,-8.59204l1.16172,-5.84568l43.23452,8.59204l-1.16172,5.84568z" fill="#fd8369" id="svg_25"/>
  <path d="m289.21154,697.87863l-43.23452,-8.59204l1.16172,-5.84568l43.23452,8.59204l-1.16172,5.84568z" fill="#fd8369" id="svg_26"/>
 </g>
</svg>